<?xml version="1.0" standalone="no"?><!DOCTYPE svg PUBLIC "-//W3C//DTD SVG 1.1//EN" "http://www.w3.org/Graphics/SVG/1.1/DTD/svg11.dtd"><svg t="1519819304650" class="icon" style="" viewBox="0 0 1024 1024" version="1.1" xmlns="http://www.w3.org/2000/svg" p-id="761" xmlns:xlink="http://www.w3.org/1999/xlink" width="32" height="32"><defs><style type="text/css"></style></defs><path d="M904.072095 63.841004 121.002376 63.841004c-30.895661 0-55.93494 24.224728-55.93494 54.107315l0 788.43696c0 29.881564 25.039279 54.103222 55.93494 54.103222l783.069719 0c30.890544 0 55.93494-24.221658 55.93494-54.103222L960.007035 117.948319C960.008059 88.065731 934.962639 63.841004 904.072095 63.841004zM904.901996 881.643782c0 17.934464-7.900947 23.25361-26.477025 23.25361L146.655639 904.897392c-18.581194 0-26.481118-5.318122-26.481118-23.25361L120.174522 142.683676c0-17.930371 7.899924-23.255657 26.481118-23.255657l731.769332 0c18.576077 0 26.477025 5.325285 26.477025 23.255657L904.901996 881.643782z" p-id="762" fill="#0de0c0"></path><path d="M478.973304 233.895051 242.458589 233.895051c-18.535145 0-33.55728 14.535041-33.55728 32.465412l0 228.79694c0 17.929348 15.023158 32.465412 33.55728 32.465412l236.514715 0c18.539238 0 33.56342-14.535041 33.56342-32.465412L512.536724 266.360464C512.536724 248.430092 497.513566 233.895051 478.973304 233.895051zM457.431685 458.056414c0 12.805654-3.568269 13.979386-16.803711 13.979386L280.812105 472.0358c-13.241582 0-16.810874-1.173732-16.810874-13.979386L264.001231 303.462476c0-12.806677 3.569292-13.979386 16.810874-13.979386l159.814846 0c13.236466 0 16.803711 1.172709 16.803711 13.979386L457.430662 458.056414z" p-id="763" fill="#0de0c0"></path><path d="M584.45366 331.019089l15.97688 0 175.794795 0 15.980973 0c13.240559 0 23.972994-12.339026 23.972994-27.556613 0-15.21861-10.731412-27.556613-23.972994-27.556613l-15.980973 0L600.43054 275.905864l-15.97688 0c-13.240559 0-23.974018 12.338003-23.974018 27.556613C560.479643 318.680063 571.212078 331.019089 584.45366 331.019089z" p-id="764" fill="#0de0c0"></path><path d="M792.206308 430.500824l-15.980973 0L600.43054 430.500824l-15.97688 0c-13.240559 0-23.974018 12.338003-23.974018 27.556613 0 15.21861 10.732435 27.557636 23.974018 27.557636l15.97688 0 175.794795 0 15.980973 0c13.240559 0 23.972994-12.339026 23.972994-27.557636C816.179302 442.837804 805.44789 430.500824 792.206308 430.500824z" p-id="765" fill="#0de0c0"></path><path d="M792.206308 739.689722l-15.980973 0-15.981996 0L264.831132 739.689722 248.851183 739.689722l-15.981996 0c-13.235442 0-23.967878 12.342096-23.967878 27.556613 0 15.217586 10.732435 27.557636 23.967878 27.557636l15.981996 0 15.97995 0 495.412207 0 15.981996 0 15.980973 0c13.240559 0 23.972994-12.340049 23.972994-27.557636C816.179302 752.031818 805.44789 739.689722 792.206308 739.689722z" p-id="766" fill="#0de0c0"></path><path d="M232.868163 640.20594l15.981996 0 15.97995 0 495.412207 0 15.981996 0 15.980973 0c13.240559 0 23.972994-12.339026 23.972994-27.552519 0-15.226796-10.731412-27.561729-23.972994-27.561729l-15.980973 0-15.981996 0L264.831132 585.091692 248.851183 585.091692l-15.981996 0c-13.235442 0-23.967878 12.334933-23.967878 27.561729C208.901309 627.867938 219.632721 640.20594 232.868163 640.20594z" p-id="767" fill="#0de0c0"></path></svg>