<?xml version="1.0" standalone="no"?><!DOCTYPE svg PUBLIC "-//W3C//DTD SVG 1.1//EN" "http://www.w3.org/Graphics/SVG/1.1/DTD/svg11.dtd"><svg t="1519821303972" class="icon" style="" viewBox="0 0 1024 1024" version="1.1" xmlns="http://www.w3.org/2000/svg" p-id="2352" xmlns:xlink="http://www.w3.org/1999/xlink" width="32" height="32"><defs><style type="text/css"></style></defs><path d="M614.4 384h-6.4c-19.2 0-38.4 6.4-51.2 19.2 12.8 19.2 19.2 44.8 19.2 76.8C576 569.6 505.6 640 416 640h-192C134.4 640 64 569.6 64 480S134.4 320 224 320h147.2c12.8-25.6 32-44.8 57.6-64H224C102.4 256 0 358.4 0 480S102.4 704 224 704h192C537.6 704 640 601.6 640 480c0-32-6.4-64-25.6-96z" p-id="2353" fill="#868686"></path><path d="M800 256h-192C486.4 256 384 358.4 384 480c0 32 6.4 64 25.6 96h6.4c19.2 0 38.4-6.4 51.2-19.2C454.4 537.6 448 512 448 480 448 390.4 518.4 320 608 320h192C889.6 320 960 390.4 960 480S889.6 640 800 640h-147.2c-12.8 25.6-32 44.8-57.6 64h204.8c121.6 0 224-102.4 224-224S921.6 256 800 256z" p-id="2354" fill="#868686"></path></svg>