<?xml version="1.0" standalone="no"?><!DOCTYPE svg PUBLIC "-//W3C//DTD SVG 1.1//EN" "http://www.w3.org/Graphics/SVG/1.1/DTD/svg11.dtd"><svg t="1519819127912" class="icon" style="" viewBox="0 0 1024 1024" version="1.1" xmlns="http://www.w3.org/2000/svg" p-id="2673" xmlns:xlink="http://www.w3.org/1999/xlink" width="32" height="32"><defs><style type="text/css"></style></defs><path d="M511.999488 66.861804c-245.825778 0-445.138196 199.258183-445.138196 445.138196 0 245.934249 199.312418 445.138196 445.138196 445.138196 245.826801 0 445.138196-199.203948 445.138196-445.138196C957.137685 266.119987 757.825266 66.861804 511.999488 66.861804zM511.999488 901.495922c-215.016075 0-389.495922-174.371376-389.495922-389.495922 0-215.071334 174.479847-389.495922 389.495922-389.495922 215.125569 0 389.495922 174.424588 389.495922 389.495922C901.49541 727.124546 727.124034 901.495922 511.999488 901.495922z" p-id="2674" fill="#0de0c0"></path><path d="M706.746938 512c15.377222 0 27.821649-12.443403 27.821649-27.821649 0-15.32401-12.443403-27.821649-27.821649-27.821649L551.340495 456.356702l142.473899-142.474922c10.867512-10.867512 10.867512-28.472472 0-39.339983s-28.472472-10.867512-39.339983 0l-142.474922 142.473899L369.524566 274.541797c-10.813277-10.867512-28.473495-10.867512-39.341007 0-10.812253 10.867512-10.812253 28.472472 0 39.339983l142.474922 142.474922L317.251016 456.356702c-15.32401 0-27.821649 12.497639-27.821649 27.821649 0 15.377222 12.497639 27.821649 27.821649 27.821649l166.926824 0 0 55.642275L317.251016 567.642275c-15.32401 0-27.821649 12.497639-27.821649 27.821649 0 15.377222 12.497639 27.821649 27.821649 27.821649l166.926824 0 0 139.106198c0 15.377222 12.498662 27.821649 27.821649 27.821649 15.377222 0 27.821649-12.443403 27.821649-27.821649L539.821137 623.284549l166.926824 0c15.377222 0 27.821649-12.443403 27.821649-27.821649 0-15.32401-12.443403-27.821649-27.821649-27.821649L539.820114 567.641251l0-55.642275L706.746938 511.998977z" p-id="2675" fill="#0de0c0"></path></svg>