<?xml version="1.0" standalone="no"?><!DOCTYPE svg PUBLIC "-//W3C//DTD SVG 1.1//EN" "http://www.w3.org/Graphics/SVG/1.1/DTD/svg11.dtd"><svg t="1519819216575" class="icon" style="" viewBox="0 0 1024 1024" version="1.1" xmlns="http://www.w3.org/2000/svg" p-id="1207" xmlns:xlink="http://www.w3.org/1999/xlink" width="32" height="32"><defs><style type="text/css"></style></defs><path d="M509.444 502.265c227.504 0 399.054-73.478 399.054-170.92 0-97.432-171.55-170.908-399.055-170.908-227.503 0-399.066 73.478-399.066 170.909 0 97.443 171.563 170.919 399.067 170.919zM509.444 203.567c209.751 0 355.925 67.339 355.925 127.778 0 60.441-146.173 127.79-355.925 127.79-209.763 0-355.937-67.349-355.937-127.79 0.001-60.439 146.175-127.778 355.937-127.778zM509.436 683.316c226.883 0 397.975-73.019 397.975-169.83 0-25.565-12.354-49.357-34.102-70.697-0.14-0.144-0.25-0.302-0.394-0.442-0.162-0.158-0.269-0.326-0.429-0.482l-0.108 0.119c-3.498-3.206-8.071-5.276-13.19-5.276-10.863 0-19.666 8.802-19.666 19.664 0 5.75 2.562 10.804 6.494 14.401l-0.078 0.085c13.126 13.196 20.524 29.315 20.524 42.627 0 60.962-146.617 128.883-357.025 128.883-210.398 0-357.016-67.92-357.016-128.883 0-15.187 4.269-28.184 21.006-42.974 0.202-0.191 0.404-0.359 0.598-0.56 0.129-0.111 0.226-0.219 0.357-0.333l-0.08-0.077c3.215-3.5 5.291-8.081 5.291-13.209 0-10.862-8.804-19.664-19.666-19.664-5.43 0-10.344 2.201-13.9 5.758l-0.116-0.113c-22.027 21.453-34.435 45.428-34.435 71.171-0.001 96.812 171.089 169.83 397.961 169.83zM873.117 622.593c-0.158-0.156-0.265-0.323-0.427-0.477l-0.107 0.118c-3.498-3.206-8.071-5.278-13.192-5.278-10.859 0-19.664 8.803-19.664 19.665 0 5.749 2.561 10.805 6.494 14.4l-0.079 0.086c13.127 13.197 20.524 29.316 20.524 42.626 0 60.965-146.615 128.883-357.024 128.883-210.397 0-357.015-67.919-357.015-128.883 0-15.187 4.269-28.184 21.004-42.974 0.202-0.19 0.405-0.359 0.598-0.56 0.129-0.112 0.227-0.219 0.357-0.334l-0.08-0.076c3.215-3.501 5.291-8.082 5.291-13.209 0-10.863-8.804-19.665-19.664-19.665-5.431 0-10.345 2.201-13.901 5.758l-0.115-0.112c-22.028 21.452-34.434 45.429-34.434 71.171 0 96.813 171.089 169.83 397.961 169.83 226.883 0 397.973-73.019 397.973-169.83 0-25.562-12.352-49.356-34.096-70.692-0.144-0.149-0.257-0.306-0.402-0.447z" p-id="1208" fill="#868686"></path></svg>