<?xml version="1.0" standalone="no"?><!DOCTYPE svg PUBLIC "-//W3C//DTD SVG 1.1//EN" "http://www.w3.org/Graphics/SVG/1.1/DTD/svg11.dtd"><svg t="1519818189958" class="icon" style="" viewBox="0 0 1110 1024" version="1.1" xmlns="http://www.w3.org/2000/svg" p-id="1035" xmlns:xlink="http://www.w3.org/1999/xlink" width="34.6875" height="32"><defs><style type="text/css"></style></defs><path d="M1035.112815 539.707382 586.526246 84.828529c-27.89935-28.176637-36.004666-28.176637-63.904016 0L74.035661 539.707382l-42.36094-42.680887L503.980003 21.116481c27.94201-28.155307 73.246459-28.155307 101.209798 0l472.305282 475.910015L1035.112815 539.707382zM223.962673 896.02133c0 23.569405 19.111481 42.659557 42.659557 42.659557l575.904016 0c23.548075 0 42.659557-19.090152 42.659557-42.659557L885.185802 576.074654l63.989335 0 0 341.276454c0 47.11748-38.201633 85.319113-85.319113 85.319113l-618.563573 0c-47.11748 0-85.319113-38.201633-85.319113-85.319113L159.973338 576.074654l63.989335 0L223.962673 896.02133z" p-id="1036" fill="#868686"></path></svg>